<?xml version="1.0" encoding="UTF-8"?>
<svg xmlns="http://www.w3.org/2000/svg" xmlns:xlink="http://www.w3.org/1999/xlink" version="1.1" viewBox="0 0 160 160">
  <!-- Generator: Adobe Illustrator 29.8.2, SVG Export Plug-In . SVG Version: 2.1.1 Build 3)  -->
  <defs>
    <style>
      .st0 {
        font-family: MyriadPro-Regular, 'Myriad Pro';
        font-size: 18px;
      }

      .st1 {
        fill: #fadb18;
      }

      .st2 {
        fill: #988a83;
      }
    </style>
    <path id="path" d="M48.57,46.39c53.8-36.89,110.02,42.19,57.51,80.88C52.28,164.17-3.94,85.09,48.57,46.39Z"/>
  </defs>
  <g id="Layer_1">
    <g>
      <path d="M69.5,73.78c-.09-.7-3.61-4.67-3.26-7.75s2.2-5.37,2.82-7.22,2.11-5.72,3.26-5.9,2.47,3.61,2.64,5.2c.97-.7,3.79-.09,3.79-.09,0,0,2.91-5.28,4.05-5.11s2.91,8.54,2.82,11.01-1.23,8.37-1.23,10.48,1.23,9.86,1.23,9.86c0,0,5.02,17.97,3.08,24.75,2.64-3.35,2.2-8.72,2.2-8.72,0,0-.88-8.19-.88-11.54,0,0-.7-8.9,6.43-10.3,2.64-.62,5.11,1.67,1.85,3.61s-4.05,4.32-4.05,5.55.18,8.63.26,10.39,1.76,11.54-3.17,15.5c-4.93,3.96-10.48,7.75-23.69,4.14-13.21-3.61-9.07-19.82-8.28-21.93s10.13-21.93,10.13-21.93Z"/>
      <ellipse class="st1" cx="71.2" cy="64.41" rx="2.54" ry="2.18" transform="translate(-3.77 124.39) rotate(-80.79)"/>
      <ellipse cx="71.05" cy="64.32" rx="1.45" ry="1.19" transform="translate(-3.81 124.16) rotate(-80.79)"/>
      <ellipse class="st1" cx="77.28" cy="64.96" rx="2.46" ry="2.18" transform="translate(.8 130.85) rotate(-80.79)"/>
      <ellipse cx="77.12" cy="64.93" rx="1.45" ry="1.19" transform="translate(.69 130.67) rotate(-80.79)"/>
      <path d="M84.97,66.07c-.06,0-.12-.03-.16-.09-.04-.09-.01-.19.07-.24.34-.18.71-.3,1.1-.36h.06c.09-.02.18-.03.25-.06.09-.04.19,0,.23.09.04.09,0,.19-.09.23-.12.05-.24.07-.34.08h-.05c-.34.06-.68.17-.98.33-.03.01-.05.02-.08.02Z"/>
      <path d="M84.97,67.05c-.07,0-.14-.05-.17-.12-.03-.09.02-.19.12-.22.45-.14.91-.22,1.37-.25.1,0,.18.07.19.17,0,.1-.07.18-.17.19-.44.03-.87.11-1.29.24-.02,0-.04,0-.05,0Z"/>
      <path d="M66.61,67.27s-.03,0-.05,0c-.45-.12-.91-.2-1.38-.22-.1,0-.17-.09-.17-.18,0-.1.09-.17.18-.17.49.02.98.1,1.46.23.09.03.15.12.12.22-.02.08-.09.13-.17.13Z"/>
      <path d="M66.44,66.58s-.04,0-.06-.01c-.51-.19-1.03-.34-1.56-.45-.1-.02-.16-.11-.14-.21.02-.1.11-.16.21-.14.55.11,1.09.27,1.62.46.09.03.14.14.1.23-.03.07-.09.11-.17.11Z"/>
      <path d="M66.66,65.72s-.05,0-.08-.02c-.62-.32-1.28-.58-1.95-.78-.09-.03-.15-.12-.12-.22.03-.09.12-.15.22-.12.69.2,1.37.47,2.01.8.09.04.12.15.08.24-.03.06-.09.1-.16.1Z"/>
      <path class="st2" d="M70.47,58.72s1.23-3.35,1.94-3.61.7,3.08.44,3.08-.44.09-.44.09l-.18-1.41-.18,1.41-.35.18v-.97l-.53,1.06-.7.18Z"/>
      <path class="st2" d="M79.94,58.77s2.03-3.52,2.55-3.52.53,4.76.26,4.67-.7-1.32-.7-1.32l-.18.88-.62-.26.18-1.06-.7.88-.79-.26Z"/>
    </g>
  </g>
  <g id="Layer_2">
    <text>
      <textPath xlink:href="#path"><tspan class="st0"><tspan x="0" y="0">PawsitiveVibesByGro</tspan></tspan>
      </textPath></text>
  </g>
</svg>