<?xml version="1.0" encoding="UTF-8"?>
<svg id="Layer_1" xmlns="http://www.w3.org/2000/svg" version="1.1" viewBox="0 0 160 160">
  <!-- Generator: Adobe Illustrator 29.8.2, SVG Export Plug-In . SVG Version: 2.1.1 Build 3)  -->
  <defs>
    <style>
      .st0, .st1 {
        isolation: isolate;
      }

      .st2 {
        stroke: #ce0089;
      }

      .st2, .st1 {
        fill: #ce0089;
        font-family: ArialMT, Arial;
        font-size: 18px;
        stroke-miterlimit: 10;
      }

      .st3 {
        fill: #fadb18;
      }

      .st4 {
        fill: #988a83;
      }

      .st1 {
        stroke: #cc1488;
      }
    </style>
  </defs>
  <g id="Layer_11" data-name="Layer_1">
    <g>
      <path d="M69.5,73.78c-.09-.7-3.61-4.67-3.26-7.75s2.2-5.37,2.82-7.22,2.11-5.72,3.26-5.9,2.47,3.61,2.64,5.2c.97-.7,3.79-.09,3.79-.09,0,0,2.91-5.28,4.05-5.11s2.91,8.54,2.82,11.01-1.23,8.37-1.23,10.48,1.23,9.86,1.23,9.86c0,0,5.02,17.97,3.08,24.75,2.64-3.35,2.2-8.72,2.2-8.72,0,0-.88-8.19-.88-11.54,0,0-.7-8.9,6.43-10.3,2.64-.62,5.11,1.67,1.85,3.61s-4.05,4.32-4.05,5.55.18,8.63.26,10.39,1.76,11.54-3.17,15.5-10.48,7.75-23.69,4.14-9.07-19.82-8.28-21.93,10.13-21.93,10.13-21.93Z"/>
      <ellipse class="st3" cx="71.21" cy="64.42" rx="2.54" ry="2.18" transform="translate(-3.78 124.39) rotate(-80.79)"/>
      <ellipse cx="71.05" cy="64.32" rx="1.45" ry="1.19" transform="translate(-3.81 124.16) rotate(-80.79)"/>
      <ellipse class="st3" cx="77.29" cy="64.96" rx="2.46" ry="2.18" transform="translate(.79 130.86) rotate(-80.79)"/>
      <ellipse cx="77.13" cy="64.94" rx="1.45" ry="1.19" transform="translate(.68 130.68) rotate(-80.79)"/>
      <path d="M84.97,66.07c-.06,0-.12-.03-.16-.09-.04-.09-.01-.19.07-.24.34-.18.71-.3,1.1-.36h.06c.09-.02.18-.03.25-.06.09-.04.19,0,.23.09s0,.19-.09.23c-.12.05-.24.07-.34.08h-.05c-.34.06-.68.17-.98.33-.03.01-.05.02-.08.02h0Z"/>
      <path d="M84.97,67.05c-.07,0-.14-.05-.17-.12-.03-.09.02-.19.12-.22.45-.14.91-.22,1.37-.25.1,0,.18.07.19.17,0,.1-.07.18-.17.19-.44.03-.87.11-1.29.24h-.05Z"/>
      <path d="M66.61,67.27h-.05c-.45-.12-.91-.2-1.38-.22-.1,0-.17-.09-.17-.18,0-.1.09-.17.18-.17.49.02.98.1,1.46.23.09.03.15.12.12.22-.02.08-.09.13-.17.13h0Z"/>
      <path d="M66.44,66.58s-.04,0-.06-.01c-.51-.19-1.03-.34-1.56-.45-.1-.02-.16-.11-.14-.21.02-.1.11-.16.21-.14.55.11,1.09.27,1.62.46.09.03.14.14.1.23-.03.07-.09.11-.17.11h0Z"/>
      <path d="M66.66,65.72s-.05,0-.08-.02c-.62-.32-1.28-.58-1.95-.78-.09-.03-.15-.12-.12-.22.03-.09.12-.15.22-.12.69.2,1.37.47,2.01.8.09.04.12.15.08.24-.03.06-.09.1-.16.1Z"/>
      <path class="st4" d="M70.47,58.72s1.23-3.35,1.94-3.61.7,3.08.44,3.08-.44.09-.44.09l-.18-1.41-.18,1.41-.35.18v-.97l-.53,1.06-.7.18h0Z"/>
      <path class="st4" d="M79.94,58.77s2.03-3.52,2.55-3.52.53,4.76.26,4.67-.7-1.32-.7-1.32l-.18.88-.62-.26.18-1.06-.7.88-.79-.26h0Z"/>
    </g>
  </g>
  <g class="st0">
    <text class="st2" transform="translate(48.42 46.14) rotate(-28.9)"><tspan x="0" y="0">P</tspan></text>
    <text class="st2" transform="translate(58.99 40.38) rotate(-17.1)"><tspan x="0" y="0">a</tspan></text>
    <text class="st2" transform="translate(68.58 37.23) rotate(-2.97)"><tspan x="0" y="0">w</tspan></text>
    <text class="st2" transform="translate(81.6 36.8) rotate(11.15)"><tspan x="0" y="0">s</tspan></text>
    <text class="st2" transform="translate(90.39 38.72) rotate(19.29)"><tspan x="0" y="0">i</tspan></text>
    <text class="st2" transform="translate(94.18 40.02) rotate(24.73)"><tspan x="0" y="0">t</tspan></text>
    <text class="st2" transform="translate(98.71 42.14) rotate(29.99)"><tspan x="0" y="0">i</tspan></text>
    <text class="st2" transform="translate(102.27 44.01) rotate(37.28)"><tspan x="0" y="0">v</tspan></text>
    <text class="st2" transform="translate(109.48 49.45) rotate(47.44)"><tspan x="0" y="0">e</tspan></text>
    <text class="st2" transform="translate(116.35 56.8) rotate(58.86)"><tspan x="0" y="0">V</tspan></text>
    <text class="st2" transform="translate(122.31 67.22) rotate(67.28)"><tspan x="0" y="0">i</tspan></text>
    <text class="st2" transform="translate(124.05 70.85) rotate(74.93)"><tspan x="0" y="0">b</tspan></text>
    <text class="st2" transform="translate(126.67 80.55) rotate(86.54)"><tspan x="0" y="0">e</tspan></text>
    <text class="st2" transform="translate(127.23 90.57) rotate(98.35)"><tspan x="0" y="0">s</tspan></text>
    <text class="st2" transform="translate(126.08 99.57) rotate(111.84)"><tspan x="0" y="0">B</tspan></text>
    <text class="st2" transform="translate(121.43 110.67) rotate(124.83)"><tspan x="0" y="0">y</tspan></text>
    <text class="st2" transform="translate(116.44 118.24) rotate(137.34)"><tspan x="0" y="0">G</tspan></text>
    <text class="st2" transform="translate(105.91 127.47) rotate(148.48)"><tspan x="0" y="0">r</tspan></text>
  </g>
  <text class="st1" transform="translate(100.86 130.75) rotate(156.47)"><tspan x="0" y="0">o</tspan></text>
  <text/>
</svg>